<svg width="28" height="28" viewBox="0 0 28 28" fill="none" xmlns="http://www.w3.org/2000/svg">
<rect x="0.5" y="0.5" width="27" height="27" rx="13.5" stroke="#292929"/>
<path fill-rule="evenodd" clip-rule="evenodd" d="M11 17.5C11 17.3674 11.0527 17.2402 11.1464 17.1464C11.2402 17.0527 11.3674 17 11.5 17H20.5C20.6326 17 20.7598 17.0527 20.8536 17.1464C20.9473 17.2402 21 17.3674 21 17.5C21 17.6326 20.9473 17.7598 20.8536 17.8536C20.7598 17.9473 20.6326 18 20.5 18H11.5C11.3674 18 11.2402 17.9473 11.1464 17.8536C11.0527 17.7598 11 17.6326 11 17.5ZM11 13.5C11 13.3674 11.0527 13.2402 11.1464 13.1464C11.2402 13.0527 11.3674 13 11.5 13H20.5C20.6326 13 20.7598 13.0527 20.8536 13.1464C20.9473 13.2402 21 13.3674 21 13.5C21 13.6326 20.9473 13.7598 20.8536 13.8536C20.7598 13.9473 20.6326 14 20.5 14H11.5C11.3674 14 11.2402 13.9473 11.1464 13.8536C11.0527 13.7598 11 13.6326 11 13.5ZM11 9.5C11 9.36739 11.0527 9.24021 11.1464 9.14645C11.2402 9.05268 11.3674 9 11.5 9H20.5C20.6326 9 20.7598 9.05268 20.8536 9.14645C20.9473 9.24021 21 9.36739 21 9.5C21 9.63261 20.9473 9.75979 20.8536 9.85355C20.7598 9.94732 20.6326 10 20.5 10H11.5C11.3674 10 11.2402 9.94732 11.1464 9.85355C11.0527 9.75979 11 9.63261 11 9.5ZM8 10.5C8.26522 10.5 8.51957 10.3946 8.70711 10.2071C8.89464 10.0196 9 9.76522 9 9.5C9 9.23478 8.89464 8.98043 8.70711 8.79289C8.51957 8.60536 8.26522 8.5 8 8.5C7.73478 8.5 7.48043 8.60536 7.29289 8.79289C7.10536 8.98043 7 9.23478 7 9.5C7 9.76522 7.10536 10.0196 7.29289 10.2071C7.48043 10.3946 7.73478 10.5 8 10.5ZM8 14.5C8.26522 14.5 8.51957 14.3946 8.70711 14.2071C8.89464 14.0196 9 13.7652 9 13.5C9 13.2348 8.89464 12.9804 8.70711 12.7929C8.51957 12.6054 8.26522 12.5 8 12.5C7.73478 12.5 7.48043 12.6054 7.29289 12.7929C7.10536 12.9804 7 13.2348 7 13.5C7 13.7652 7.10536 14.0196 7.29289 14.2071C7.48043 14.3946 7.73478 14.5 8 14.5ZM8 18.5C8.26522 18.5 8.51957 18.3946 8.70711 18.2071C8.89464 18.0196 9 17.7652 9 17.5C9 17.2348 8.89464 16.9804 8.70711 16.7929C8.51957 16.6054 8.26522 16.5 8 16.5C7.73478 16.5 7.48043 16.6054 7.29289 16.7929C7.10536 16.9804 7 17.2348 7 17.5C7 17.7652 7.10536 18.0196 7.29289 18.2071C7.48043 18.3946 7.73478 18.5 8 18.5Z" fill="#292929"/>
</svg>
