<svg width="20" height="20" viewBox="0 0 20 20" fill="none" xmlns="http://www.w3.org/2000/svg">
<path fill-rule="evenodd" clip-rule="evenodd" d="M17 9.99965C17 9.86705 16.9473 9.73987 16.8535 9.6461C16.7598 9.55233 16.6326 9.49965 16.5 9.49965H4.70699L7.85399 6.35366C7.90048 6.30717 7.93736 6.25198 7.96252 6.19124C7.98768 6.1305 8.00063 6.0654 8.00063 5.99966C8.00063 5.93391 7.98768 5.86881 7.96252 5.80807C7.93736 5.74733 7.90048 5.69214 7.85399 5.64565C7.80751 5.59917 7.75232 5.56229 7.69158 5.53713C7.63084 5.51197 7.56574 5.49902 7.49999 5.49902C7.43425 5.49902 7.36915 5.51197 7.30841 5.53713C7.24767 5.56229 7.19248 5.59917 7.14599 5.64565L3.14599 9.64565C3.09943 9.6921 3.06249 9.74728 3.03728 9.80802C3.01207 9.86877 2.9991 9.93389 2.9991 9.99965C2.9991 10.0654 3.01207 10.1305 3.03728 10.1913C3.06249 10.252 3.09943 10.3072 3.14599 10.3537L7.14599 14.3537C7.19248 14.4001 7.24767 14.437 7.30841 14.4622C7.36915 14.4873 7.43425 14.5003 7.49999 14.5003C7.56574 14.5003 7.63084 14.4873 7.69158 14.4622C7.75232 14.437 7.80751 14.4001 7.85399 14.3537C7.90048 14.3072 7.93736 14.252 7.96252 14.1912C7.98768 14.1305 8.00063 14.0654 8.00063 13.9997C8.00063 13.9339 7.98768 13.8688 7.96252 13.8081C7.93736 13.7473 7.90048 13.6921 7.85399 13.6457L4.70699 10.4997H16.5C16.6326 10.4997 16.7598 10.447 16.8535 10.3532C16.9473 10.2594 17 10.1323 17 9.99965Z" fill="#797979"/>
</svg>
