<svg width="16" height="16" viewBox="0 0 16 16" fill="none" xmlns="http://www.w3.org/2000/svg">
<g clip-path="url(#clip0_34_2707)">
<path fill-rule="evenodd" clip-rule="evenodd" d="M7.99992 0.599274C3.58911 0.599274 0 3.4906 0 7.04454C0 10.2306 2.84607 12.8989 6.69053 13.4035C6.95109 13.4592 7.30566 13.574 7.39537 13.7951C7.47604 13.9959 7.44813 14.3105 7.42114 14.5133C7.42114 14.5133 7.32728 15.0737 7.30704 15.1931L7.30393 15.2108C7.26596 15.4258 7.17013 15.9685 7.99992 15.6212C8.85384 15.264 12.6072 12.928 14.2856 11.01C15.4447 9.74783 16 8.46691 16 7.04454C16 3.4906 12.4114 0.599274 7.99992 0.599274ZM5.77617 5.35593C5.69093 5.35593 5.62164 5.42746 5.62164 5.51533V9.08843C5.62164 9.17646 5.69093 9.24782 5.77617 9.24782H6.33213C6.41737 9.24782 6.48651 9.17646 6.48651 9.08843V5.51533C6.48651 5.42746 6.41737 5.35593 6.33213 5.35593H5.77617ZM9.63055 5.35593H10.2158C10.3057 5.35593 10.3783 5.42746 10.3783 5.51533V9.08843C10.3783 9.17646 10.3057 9.24782 10.2158 9.24782H9.63055C9.61615 9.24782 9.60223 9.24578 9.58896 9.24232L9.58816 9.24213L9.58656 9.24185L9.5814 9.24026L9.57552 9.23824L9.57072 9.23651L9.56273 9.2332C9.56017 9.23211 9.55745 9.23085 9.55505 9.22943C9.55345 9.22865 9.55201 9.22802 9.55041 9.22707L9.54033 9.2211L9.53873 9.21984C9.52322 9.20947 9.50898 9.19642 9.49746 9.18039L7.82932 6.96626V9.08843C7.82932 9.17646 7.75654 9.24782 7.66665 9.24782H7.08154C6.9918 9.24782 6.91887 9.17646 6.91887 9.08843V5.51533C6.91887 5.42746 6.9918 5.35593 7.08154 5.35593H7.66665L7.66941 5.35608L7.6724 5.35625L7.67483 5.35636C7.67683 5.35643 7.67878 5.3565 7.68072 5.35672C7.6836 5.35703 7.68648 5.35719 7.68936 5.35782L7.69624 5.35861L7.70551 5.36065C7.70743 5.36128 7.70935 5.36159 7.71111 5.36222C7.71447 5.36301 7.71766 5.36411 7.72086 5.36521L7.72087 5.36521L7.72615 5.36709C7.72935 5.3682 7.73239 5.36961 7.73542 5.37103L7.73861 5.37246L7.74054 5.37338C7.74342 5.3748 7.7463 5.37653 7.74918 5.37826C7.75094 5.37904 7.75254 5.37999 7.75414 5.38109C7.75702 5.38282 7.75974 5.38486 7.76262 5.38675L7.76376 5.3876C7.76481 5.38837 7.76584 5.38912 7.76678 5.39005C7.76981 5.39225 7.77269 5.3946 7.77541 5.39712L7.77845 5.39979C7.78181 5.40294 7.78501 5.40608 7.78821 5.4097L7.78933 5.41064C7.79381 5.41583 7.79813 5.42117 7.80197 5.42683L9.46803 7.63812V5.51533C9.46803 5.42746 9.54081 5.35593 9.63055 5.35593ZM5.03101 8.35309H3.48145V5.51564C3.48145 5.42746 3.41054 5.35593 3.32325 5.35593H2.75281C2.66537 5.35593 2.59445 5.42746 2.59445 5.51564V9.08796V9.08828C2.59445 9.13119 2.61144 9.17002 2.63872 9.19862C2.63934 9.19941 2.63997 9.2002 2.6409 9.20098L2.64324 9.20318C2.67176 9.23085 2.7101 9.24782 2.75265 9.24782H5.03101C5.11844 9.24782 5.18905 9.17615 5.18905 9.08796V8.5128C5.18905 8.42462 5.11844 8.35309 5.03101 8.35309ZM13.4051 6.09096C13.4051 6.1793 13.3345 6.25067 13.2471 6.25067H11.6977V6.85444H13.2471C13.3345 6.85444 13.4051 6.92612 13.4051 7.0143V7.58946C13.4051 7.67764 13.3345 7.74917 13.2471 7.74917H11.6977V8.35309H13.2471C13.3345 8.35309 13.4051 8.42477 13.4051 8.5128V9.08812C13.4051 9.17615 13.3345 9.24782 13.2471 9.24782H10.9686C10.9262 9.24782 10.8877 9.23069 10.8593 9.20318C10.8586 9.20255 10.8576 9.20177 10.857 9.20098C10.8562 9.20035 10.8554 9.19941 10.8548 9.19862C10.8275 9.17002 10.8105 9.13119 10.8105 9.08828V9.08812V5.5158V5.51564C10.8105 5.47288 10.8274 5.43422 10.8545 5.40561L10.857 5.40278C10.8575 5.40215 10.8582 5.40168 10.8589 5.40105C10.8874 5.37323 10.9259 5.35593 10.9686 5.35593H10.9689H13.2471C13.3345 5.35593 13.4051 5.42761 13.4051 5.5158V6.09096Z" fill="white"/>
</g>
<defs>
<clipPath id="clip0_34_2707">
<rect width="16" height="16" fill="white"/>
</clipPath>
</defs>
</svg>
