<svg width="16" height="16" viewBox="0 0 16 16" fill="none" xmlns="http://www.w3.org/2000/svg">
<g clip-path="url(#clip0_173_50885)">
<path fill-rule="evenodd" clip-rule="evenodd" d="M15.964 0.686004C16.0004 0.595141 16.0093 0.4956 15.9896 0.399724C15.97 0.303848 15.9226 0.215852 15.8534 0.146645C15.7842 0.0774387 15.6962 0.0300652 15.6003 0.0103977C15.5044 -0.00926973 15.4049 -0.00036623 15.314 0.0360044L0.767017 5.855H0.766017L0.314017 6.035C0.228408 6.06915 0.153903 6.1263 0.098733 6.20013C0.0435631 6.27397 0.00987534 6.36162 0.0013908 6.45339C-0.00709374 6.54517 0.00995519 6.63751 0.0506543 6.72021C0.0913535 6.8029 0.154119 6.87274 0.232017 6.922L0.642017 7.182L0.643017 7.184L5.63802 10.362L8.81602 15.357L8.81802 15.359L9.07802 15.769C9.12744 15.8466 9.19732 15.9091 9.27995 15.9495C9.36259 15.9899 9.45478 16.0068 9.54638 15.9982C9.63798 15.9896 9.72543 15.956 9.79912 15.9009C9.87281 15.8458 9.92987 15.7714 9.96402 15.686L15.964 0.686004ZM14.131 2.576L14.602 1.398L13.424 1.869L5.93002 9.363L6.26802 9.578C6.33004 9.6174 6.38262 9.66998 6.42202 9.73201L6.63702 10.07L14.131 2.576Z" fill="white"/>
</g>
<defs>
<clipPath id="clip0_173_50885">
<rect width="16" height="16" fill="white"/>
</clipPath>
</defs>
</svg>
