<svg width="20" height="20" viewBox="0 0 20 20" fill="none" xmlns="http://www.w3.org/2000/svg">
<path fill-rule="evenodd" clip-rule="evenodd" d="M2.99909 9.99986C2.99909 10.1325 3.05177 10.2596 3.14554 10.3534C3.23931 10.4472 3.36648 10.4999 3.49909 10.4999L15.2921 10.4999L12.1451 13.6459C12.0986 13.6923 12.0617 13.7475 12.0366 13.8083C12.0114 13.869 11.9985 13.9341 11.9985 13.9999C11.9985 14.0656 12.0114 14.1307 12.0366 14.1914C12.0617 14.2522 12.0986 14.3074 12.1451 14.3539C12.1916 14.4003 12.2468 14.4372 12.3075 14.4624C12.3682 14.4875 12.4333 14.5005 12.4991 14.5005C12.5648 14.5005 12.6299 14.4875 12.6907 14.4624C12.7514 14.4372 12.8066 14.4003 12.8531 14.3539L16.8531 10.3539C16.8997 10.3074 16.9366 10.2522 16.9618 10.1915C16.987 10.1307 17 10.0656 17 9.99986C17 9.93409 16.987 9.86897 16.9618 9.80822C16.9366 9.74748 16.8997 9.6923 16.8531 9.64586L12.8531 5.64586C12.8066 5.59937 12.7514 5.56249 12.6907 5.53733C12.6299 5.51217 12.5648 5.49923 12.4991 5.49923C12.4333 5.49923 12.3682 5.51218 12.3075 5.53733C12.2468 5.56249 12.1916 5.59937 12.1451 5.64586C12.0986 5.69235 12.0617 5.74753 12.0366 5.80827C12.0114 5.86901 11.9985 5.93411 11.9985 5.99986C11.9985 6.0656 12.0114 6.1307 12.0366 6.19144C12.0617 6.25218 12.0986 6.30737 12.1451 6.35386L15.2921 9.49986L3.49909 9.49986C3.36648 9.49986 3.23931 9.55254 3.14554 9.6463C3.05177 9.74007 2.99909 9.86725 2.99909 9.99986Z" fill="#797979"/>
</svg>
